<svg width="40" height="40" viewBox="0 0 40 40" fill="none" xmlns="http://www.w3.org/2000/svg">
<circle cx="20" cy="20" r="20" fill="#2546FF"/>
<path d="M25.3333 28H20C19.2928 28 18.6145 27.719 18.1144 27.2189C17.6143 26.7188 17.3333 26.0405 17.3333 25.3333V22.6667H14.3707C13.7421 22.666 13.1396 22.416 12.6951 21.9716C12.2507 21.5271 12.0007 20.9245 12 20.296V14.3707C12.0007 13.7421 12.2507 13.1396 12.6951 12.6951C13.1396 12.2507 13.7421 12.0007 14.3707 12H20.296C20.9245 12.0007 21.5271 12.2507 21.9716 12.6951C22.416 13.1396 22.666 13.7421 22.6667 14.3707V17.3333H25.3333C26.0405 17.3333 26.7188 17.6143 27.2189 18.1144C27.719 18.6145 28 19.2928 28 20V25.3333C28 26.0405 27.719 26.7188 27.2189 27.2189C26.7188 27.719 26.0405 28 25.3333 28ZM14.3707 13.7778C14.2135 13.778 14.0628 13.8406 13.9517 13.9517C13.8406 14.0628 13.778 14.2135 13.7778 14.3707V20.296C13.778 20.4532 13.8406 20.6038 13.9517 20.7149C14.0628 20.8261 14.2135 20.8886 14.3707 20.8889H17.3333V20C17.3333 19.2928 17.6143 18.6145 18.1144 18.1144C18.6145 17.6143 19.2928 17.3333 20 17.3333H20.8889V14.3707C20.8886 14.2135 20.8261 14.0628 20.7149 13.9517C20.6038 13.8406 20.4532 13.778 20.296 13.7778H14.3707Z" fill="white"/>
</svg>
