<svg width="64" height="40" viewBox="0 0 64 40" fill="none" xmlns="http://www.w3.org/2000/svg">
<g id="logo mobile">
<path id="Vector" d="M7.11586 14.5154L7.81198 18.1314H9.82299L6.36818 0.179688H3.4548L0 18.1314H1.85631L2.55242 14.5154H7.11586ZM4.79547 2.43647L6.83225 12.7971H2.81025L4.79547 2.43647Z" fill="black"/>
<path id="Vector_2" d="M11.3926 0.179688V18.1314H13.4036V0.179688H11.3926Z" fill="black"/>
<path id="Vector_3" d="M15.4712 0.179688V18.1314H17.4822V10.4634H18.9003C20.576 10.4634 21.53 11.1045 21.53 13.1305V15.9515C21.53 17.1569 21.6331 17.6185 21.8652 18.1314H23.902C23.5668 17.5159 23.541 16.7722 23.541 15.9772V13.1818C23.541 11.2584 22.9223 9.92483 21.2722 9.43762C22.8191 8.95033 23.5152 7.71934 23.5152 5.74466V4.28287C23.5152 1.61578 22.3292 0.179688 19.4932 0.179688H15.4712ZM17.4822 8.64262V2.00048H19.4416C20.937 2.00048 21.53 2.84677 21.53 4.46246V6.18065C21.53 8.12973 20.576 8.64262 18.9776 8.64262H17.4822Z" fill="black"/>
<path id="Vector_4" d="M25.6177 0.179688V18.1314H29.846C32.6562 18.1314 33.9453 16.4388 33.9453 13.6947V4.64196C33.9453 1.87227 32.6562 0.179688 29.846 0.179688H25.6177ZM27.6287 16.3106V2.00048H29.7944C31.264 2.00048 31.9601 2.89807 31.9601 4.53936V13.7717C31.9601 15.413 31.264 16.3106 29.8201 16.3106H27.6287Z" fill="black"/>
<path id="Vector_5" d="M35.8403 0.179688V18.1314H37.8514V10.4634H39.2694C40.9452 10.4634 41.8991 11.1045 41.8991 13.1305V15.9515C41.8991 17.1569 42.0023 17.6185 42.2343 18.1314H44.2711C43.9359 17.5159 43.9102 16.7722 43.9102 15.9772V13.1818C43.9102 11.2584 43.2914 9.92483 41.6414 9.43762C43.1883 8.95033 43.8844 7.71934 43.8844 5.74466V4.28287C43.8844 1.61578 42.6984 0.179688 39.8623 0.179688H35.8403ZM37.8514 8.64262V2.00048H39.8108C41.3062 2.00048 41.8991 2.84677 41.8991 4.46246V6.18065C41.8991 8.12973 40.9452 8.64262 39.3467 8.64262H37.8514Z" fill="black"/>
<path id="Vector_6" d="M45.832 13.7972C45.832 16.5156 47.1985 18.3108 49.9571 18.3108C52.7416 18.3108 54.1081 16.5156 54.1081 13.7972V4.51357C54.1081 1.76958 52.7416 0 49.9571 0C47.1985 0 45.832 1.76958 45.832 4.51357V13.7972ZM47.8172 4.41106C47.8172 2.79537 48.5133 1.82087 49.9571 1.82087C51.4267 1.82087 52.097 2.79537 52.097 4.41106V13.8998C52.097 15.5411 51.4267 16.49 49.9571 16.49C48.5133 16.49 47.8172 15.5411 47.8172 13.8998V4.41106Z" fill="black"/>
<path id="Vector_7" d="M56.0078 0.179688V18.1314H58.0188V11.0532H59.7978C62.6596 11.0532 64.0003 9.56582 64.0003 6.71924V4.56497C64.0003 1.84658 62.7885 0.179688 59.9524 0.179688H56.0078ZM58.0188 9.25812V2.00048H59.9524C61.422 2.00048 62.015 2.82108 62.015 4.46246V6.84744C62.015 8.56563 61.2931 9.25812 59.7978 9.25812H58.0188Z" fill="black"/>
<path id="Vector_8" d="M3.35165 32.0755H6.57441V39.7691H9.46205V21.8174H6.57441V29.5109H3.35165V21.8174H0.515625V39.7691H3.35165V32.0755Z" fill="#00C2B4"/>
<path id="Vector_9" d="M12.0337 21.8174V35.4863C12.0337 38.3586 13.4774 39.9999 16.262 39.9999C19.0464 39.9999 20.4902 38.3586 20.4902 35.4863V21.8174H17.8089V35.6658C17.8089 36.9481 17.2417 37.4097 16.3393 37.4097C15.4369 37.4097 14.8697 36.9481 14.8697 35.6658V21.8174H12.0337Z" fill="#00C2B4"/>
<path id="Vector_10" d="M29.1387 39.7691H32.0521V21.8174H29.5255V32.5627L26.6121 21.8174H23.0542V39.7691H25.6066V26.7669L29.1387 39.7691Z" fill="#00C2B4"/>
<path id="Vector_11" d="M33.9019 24.3819H36.8668V39.7691H39.7028V24.3819H42.6678V21.8174H33.9019V24.3819Z" fill="#00C2B4"/>
<path id="Vector_12" d="M47.3976 24.3819H52.2961V21.8174H44.5615V39.7691H52.2961V37.2045H47.3976V31.9472H51.2907V29.3827H47.3976V24.3819Z" fill="#00C2B4"/>
<path id="Vector_13" d="M63.5152 39.7691C63.2316 39.1023 63.2058 38.4612 63.2058 37.5892V34.8195C63.2058 32.9474 62.7417 31.5882 61.3237 30.9983C62.5871 30.4085 63.18 29.2032 63.18 27.3567V25.9463C63.18 23.1766 61.9167 21.8174 58.9775 21.8174H54.6978V39.7691H57.5338V32.4601H58.5135C59.8026 32.4601 60.3698 33.0756 60.3698 34.7426V37.5636C60.3698 39.0254 60.4729 39.3075 60.6276 39.7691H63.5152ZM58.9002 24.3819C59.9057 24.3819 60.344 24.9461 60.344 26.2284V27.9978C60.344 29.434 59.6995 29.8956 58.6424 29.8956H57.5338V24.3819H58.9002Z" fill="#00C2B4"/>
</g>
</svg>
