<svg width="40" height="40" viewBox="0 0 40 40" fill="none" xmlns="http://www.w3.org/2000/svg">
<g clip-path="url(#clip0_719_3973)">
<path fill-rule="evenodd" clip-rule="evenodd" d="M20 40C31.0456 40 40 31.0456 40 20C40 8.9544 31.0456 0 20 0C8.9544 0 0 8.9544 0 20C0 31.0456 8.9544 40 20 40ZM27.6364 14.5456C28.4548 14.4548 29.2724 14.2728 30 13.9092C29.4544 14.7272 28.8184 15.4544 27.9088 15.9092V16.4548C27.9088 21.9092 23.818 28.0908 16.2728 28.0908C13.9092 28.0908 11.818 27.4548 10 26.2728C10.3636 26.3636 10.636 26.3636 11 26.3636C12.9092 26.3636 14.7272 25.7276 16.0908 24.6364C14.2728 24.6364 12.8184 23.4544 12.2728 21.818C12.4548 21.9088 12.7276 21.9088 13 21.9088C13.3628 21.9088 13.7256 21.8184 14.088 21.7276L14.0912 21.7268C12.1824 21.3632 10.8184 19.7268 10.8184 17.7268V17.636C11.3575 17.9932 11.9901 18.1831 12.6368 18.1816C11.546 17.454 10.8184 16.2724 10.8184 14.8176C10.8184 13.9996 11.0004 13.3632 11.364 12.7272C13.4548 15.1816 16.4548 16.818 19.8184 17C19.7276 16.7272 19.7276 16.4544 19.7276 16.0908C19.7253 15.553 19.8296 15.02 20.0344 14.5226C20.2391 14.0253 20.5404 13.5734 20.9207 13.1931C21.301 12.8128 21.7529 12.5115 22.2502 12.3068C22.7476 12.102 23.2806 11.9977 23.8184 12C25 12 26.0908 12.4544 26.8184 13.2724C27.8184 13.0908 28.6364 12.7276 29.4544 12.2724C29.0908 13.2728 28.4544 14 27.6364 14.5456Z" fill="#23ACDE"/>
<path d="M27.6364 14.5456C28.4548 14.4548 29.2724 14.2728 30 13.9092C29.4544 14.7272 28.8184 15.4544 27.9088 15.9092V16.4548C27.9088 21.9092 23.818 28.0908 16.2728 28.0908C13.9092 28.0908 11.818 27.4548 10 26.2728C10.3636 26.3636 10.636 26.3636 11 26.3636C12.9092 26.3636 14.7272 25.7276 16.0908 24.6364C14.2728 24.6364 12.8184 23.4544 12.2728 21.818C12.4548 21.9088 12.7276 21.9088 13 21.9088C13.3628 21.9088 13.7256 21.8184 14.088 21.7276L14.0912 21.7268C12.1824 21.3632 10.8184 19.7268 10.8184 17.7268V17.636C11.3575 17.9932 11.9901 18.1831 12.6368 18.1816C11.546 17.454 10.8184 16.2724 10.8184 14.8176C10.8184 13.9996 11.0004 13.3632 11.364 12.7272C13.4548 15.1816 16.4548 16.818 19.8184 17C19.7276 16.7272 19.7276 16.4544 19.7276 16.0908C19.7253 15.553 19.8296 15.02 20.0344 14.5226C20.2391 14.0253 20.5404 13.5734 20.9207 13.1931C21.301 12.8128 21.7529 12.5115 22.2502 12.3068C22.7476 12.102 23.2806 11.9977 23.8184 12C25 12 26.0908 12.4544 26.8184 13.2724C27.8184 13.0908 28.6364 12.7276 29.4544 12.2724C29.0908 13.2728 28.4544 14 27.6364 14.5456Z" fill="white"/>
<circle cx="20" cy="20" r="20" fill="#23ACDE"/>
<path d="M25.4391 29C25.6627 28.9995 25.8837 28.9486 26.0872 28.8508C26.3606 28.7227 26.5925 28.5136 26.7547 28.2489C26.9168 27.9843 27.002 27.6757 27 27.3609V13.4544C26.9993 12.8036 26.7532 12.1798 26.3158 11.7197C25.8784 11.2595 25.2853 11.0007 24.6666 11H15.3333C14.7147 11.0007 14.1216 11.2595 13.6842 11.7197C13.2467 12.1798 13.0007 12.8036 13 13.4544V27.3609C13 27.6752 13.0861 27.9829 13.2479 28.2471C13.4098 28.5114 13.6406 28.721 13.9127 28.8509C14.1848 28.9808 14.4867 29.0255 14.7824 28.9797C15.078 28.9338 15.3549 28.7994 15.5798 28.5925L20 24.5242L24.4202 28.5925C24.7013 28.8542 25.0636 28.9992 25.4391 29ZM20 22.8893C19.6233 22.8887 19.2591 23.0321 18.9755 23.2928L14.5556 27.3609L14.5504 27.365L14.5556 13.4544C14.5557 13.2375 14.6378 13.0295 14.7836 12.8761C14.9294 12.7227 15.1271 12.6365 15.3333 12.6363H24.6666C24.8728 12.6365 25.0706 12.7227 25.2164 12.8761C25.3622 13.0295 25.4442 13.2375 25.4444 13.4544V27.3609L21.0242 23.2926C20.7407 23.0319 20.3766 22.8885 20 22.8893Z" fill="white"/>
<path d="M20 22.8893C19.6233 22.8887 19.2591 23.0321 18.9755 23.2928L14.5556 27.3609L14.5504 27.365L14.5556 13.4544C14.5557 13.2375 14.6378 13.0295 14.7836 12.8761C14.9294 12.7227 15.1271 12.6365 15.3333 12.6363H24.6666C24.8728 12.6365 25.0706 12.7227 25.2164 12.8761C25.3622 13.0295 25.4442 13.2375 25.4444 13.4544V27.3609L21.0242 23.2926C20.7407 23.0319 20.3766 22.8885 20 22.8893Z" fill="white"/>
</g>
<defs>
<clipPath id="clip0_719_3973">
<rect width="40" height="40" fill="white"/>
</clipPath>
</defs>
</svg>
